<?xml version="1.0" encoding="UTF-8" standalone="no"?>
<!-- Created with Inkscape (http://www.inkscape.org/) -->

<svg
   width="24mm"
   height="24.000004mm"
   viewBox="0 0 24 24.000004"
   version="1.1"
   id="svg1"
   xmlns:inkscape="http://www.inkscape.org/namespaces/inkscape"
   xmlns:sodipodi="http://sodipodi.sourceforge.net/DTD/sodipodi-0.dtd"
   xmlns="http://www.w3.org/2000/svg"
   xmlns:svg="http://www.w3.org/2000/svg">
  <sodipodi:namedview
     id="namedview1"
     pagecolor="#ffffff"
     bordercolor="#000000"
     borderopacity="0.25"
     inkscape:showpageshadow="2"
     inkscape:pageopacity="0.0"
     inkscape:pagecheckerboard="0"
     inkscape:deskcolor="#d1d1d1"
     inkscape:document-units="mm" />
  <defs
     id="defs1" />
  <g
     inkscape:label="Layer 1"
     inkscape:groupmode="layer"
     id="layer1"
     transform="translate(-16.139588,-17.462497)">
    <g
       id="g33"
       transform="matrix(0.03216296,0,0,0.03216296,-19.969769,-2.7004605)"
       inkscape:export-filename=".png"
       inkscape:export-xdpi="96"
       inkscape:export-ydpi="96">
      <circle
         class="cls-1"
         cx="1495.8"
         cy="1000"
         r="373.10001"
         id="circle28"
         style="fill:#e0e0e0;stroke-width:0px" />
      <g
         id="g32">
        <path
           class="cls-6"
           d="m 1551.6,1313.8 c -23.2,0 -43.5,-10.7 -55.8,-29.3 -10.7,-15.2 -14.9,-33.7 -11.7,-52 v 0 c 0.2,-1.7 0.5,-3.6 0.9,-5.8 0,0 16.4,-96.1 18.5,-108.1 -12.8,-4.2 -24.4,-12.2 -33.2,-23.4 -12.4,-15.7 -17.7,-35.4 -14.4,-54 l 0.4,-3 c -1.6,0.1 -3.2,0.2 -4.9,0.2 -10.9,0 -21.4,-2.4 -30.9,-6.7 l -7.8,49.3 c 0,0.2 0,0.3 0,0.5 -2.2,17.3 -11.2,32.8 -25.2,43.7 -12.8,9.9 -28.9,15.3 -45.3,15.3 -16.4,0 -43,-10.4 -55.4,-28.7 -10.9,-15.1 -15.2,-33.5 -12.3,-51.9 l 25.3,-159.4 c -23,-1.6 -43.3,-14.5 -54.9,-35.2 -13.6,-24 -13,-53.9 1.5,-78 l 0.4,-0.7 0.5,-0.6 c 29.4,-39.1 68.7,-60.7 110.7,-60.7 42,0 49.8,8.1 71,23.3 15.4,11 28.8,25.7 39.6,43.3 11,-15.2 23.7,-31.4 38.7,-46.7 13.1,-14.4 33,-22.7 54.7,-22.7 21.7,0 25.3,3 35.7,8.7 21.2,10.7 33,29.9 35,57.1 1.5,21.1 -2.9,44.1 -6.8,64.4 -0.7,3.8 -1.4,7.5 -2.1,11.1 8.6,-1.5 17.2,-2.2 25.7,-2.2 60.5,0 108.5,36.6 125.3,95.6 16,53.5 7.8,114.9 -22.5,168.4 -29,51.2 -74.4,88.9 -125.8,104.8 0,0 -4.3,25.4 -4.4,25.5 -2.4,17.1 -11.4,32.3 -25.4,43 -12.7,9.7 -28.7,15.1 -45,15.1 v 0 z"
           id="path28"
           style="fill:#7a52ff;stroke-width:0px" />
        <path
           class="cls-3"
           d="m 1760.2,961.3 c -20.3,-71.4 -88.1,-99.1 -154.4,-77.8 2.4,-40.1 33.8,-114.7 -15.2,-139.1 -22,-12.1 -55,-8.5 -72.5,11 -19.2,19.7 -34.9,40.7 -51.5,65.5 -40.9,-94.8 -144.8,-109.1 -207.4,-25.9 -26,43.1 6.2,100.1 58.3,89.3 l -28.2,178 c -2.3,14.5 1.2,29 9.8,40.9 26.6,39.4 92.8,23.4 98.7,-23.7 0,0 11.8,-74.2 11.8,-74.2 14.8,17.5 43.8,23.5 64.9,13 l -3.8,25.4 c -5.5,30.5 19.2,61.5 50,63.1 -0.5,3.2 -22.1,129.5 -21.9,128.3 -2.5,14.5 0.8,29 9.3,41 26.1,39.7 92.5,24.4 99,-22.6 0,0 6,-35 6,-35 106.5,-27.1 178.6,-152 147.1,-257.2 z m -106.4,73.6 c -3.6,12 -9,23.3 -15.9,33.3 -0.1,-21.5 -13,-41 -32.4,-49.8 9.5,-13.8 34.5,-32.5 46.2,-32.3 6.3,7.4 8.2,33.8 2.1,48.7 z"
           id="path29"
           style="fill:#250536;stroke-width:0px" />
        <g
           id="g31">
          <path
             class="cls-5"
             d="m 1365.5,837.4 c -9.3,-1.5 -17.9,4.8 -19.4,14.1 l -32.4,203.8 c -1.5,9.2 4.8,17.9 14.1,19.4 9,1.5 18,-4.8 19.4,-14.1 l 32.4,-203.8 c 1.5,-9.2 -4.8,-17.9 -14.1,-19.4 z"
             id="path30"
             style="fill:#fcef57;stroke-width:0px" />
          <path
             class="cls-5"
             d="m 1665.2,906 c -45.3,-16 -93,13.1 -122.5,47 -0.3,0.4 -0.6,0.7 -0.9,1.1 L 1567.6,782 c 1,-7 -2.4,-13.8 -8.5,-17.3 -8.9,-5 -17.8,-0.9 -24.2,6.6 -4,3.9 -8.1,8.4 -12.4,13.3 -30.5,35.7 -55.5,76.9 -77.7,118.6 -10.7,-43.6 -22.3,-88.3 -53.6,-119.7 -34.8,-33.5 -79.1,-15.9 -107,16.9 -2.4,2.6 -4.6,5.7 -6,7.4 -12.4,18.5 13.8,37.5 27.5,19.8 49.6,-61.3 77.1,-11.2 95,42.4 8.9,27.8 15,57.1 20.1,88.3 2.4,16.2 25.2,19.5 32.1,4.5 4.9,-10.5 10,-20.9 15,-30.8 17,-33.4 35.7,-65.8 57.3,-96.1 l -30.1,200.5 c -1.6,10.1 6.5,19.5 16.8,19.5 7.8,0 14.6,-5.4 16.5,-13 2.3,-6.4 6.1,-15 9.4,-21.6 14.4,-28.6 34.4,-56.2 61.7,-73.1 74.9,-44.8 95.5,34.9 76.2,93.8 -14.3,47.2 -53.8,86 -102.6,95.8 l 13.6,-79.5 c 1.6,-9.2 -4.6,-18 -13.8,-19.6 -9.2,-1.6 -18,4.6 -19.6,13.8 l -30,175.7 c -1.6,9.2 4.6,18 13.8,19.6 9,1.6 18,-4.6 19.6,-13.8 l 10.4,-60.7 c 74.1,-9.5 132.3,-68.3 146.1,-141 9.4,-45.7 0.5,-107.3 -47.9,-126.5 z"
             id="path31"
             style="fill:#fcef57;stroke-width:0px" />
        </g>
      </g>
    </g>
  </g>
</svg>
