<?xml version="1.0" encoding="UTF-8" standalone="no"?>
<!-- Created with Inkscape (http://www.inkscape.org/) -->

<svg
   width="192.68837mm"
   height="76.222321mm"
   viewBox="0 0 192.68837 76.222321"
   version="1.1"
   id="svg1"
   xmlns:inkscape="http://www.inkscape.org/namespaces/inkscape"
   xmlns:sodipodi="http://sodipodi.sourceforge.net/DTD/sodipodi-0.dtd"
   xmlns="http://www.w3.org/2000/svg"
   xmlns:svg="http://www.w3.org/2000/svg">
  <sodipodi:namedview
     id="namedview1"
     pagecolor="#ffffff"
     bordercolor="#000000"
     borderopacity="0.25"
     inkscape:showpageshadow="2"
     inkscape:pageopacity="0.0"
     inkscape:pagecheckerboard="0"
     inkscape:deskcolor="#d1d1d1"
     inkscape:document-units="mm" />
  <defs
     id="defs1" />
  <g
     inkscape:label="Layer 1"
     inkscape:groupmode="layer"
     id="layer1"
     transform="translate(-9.7166941,-96.110379)">
    <g
       id="g11"
       transform="matrix(0.11833925,0,0,0.11833925,306.54619,-244.38714)">
      <path
         class="cls-3"
         d="m -2399.7,3514.7 c -3.4,0 -6.8,-0.3 -10.1,-0.8 -16.3,-2.6 -30.7,-11.5 -40.5,-25 -9.8,-13.5 -13.8,-30.1 -11.1,-46.6 l 27.3,-171.8 c -1.4,0 -2.8,0.1 -4.2,0.1 -22.9,0 -44.8,-13.2 -55.7,-33.5 -10.9,-20.5 -9.6,-44.5 3.7,-64.3 l 0.8,-1.2 c 0,-0.1 0.2,-0.3 0.3,-0.4 l 1.6,-2.1 c 1.6,-2.1 4,-5.3 7.2,-8.8 27.7,-32.2 64,-50.7 99.8,-50.7 35.8,0 53.2,10.7 74.3,31 l 0.6,0.6 c 13.2,13.2 24.3,28.5 33.8,46.7 10.8,-15.6 21.7,-29.8 33.1,-43 5,-5.7 9.5,-10.7 14,-15.2 13.5,-14.9 31.1,-23.1 49.5,-23.1 18.4,0 20.9,2.7 30.2,7.9 22.6,12.7 35.2,38.3 31.4,63.9 l -2.1,14.2 c 4.8,-3.5 9.7,-6.9 14.7,-10.2 10.6,-7.1 22.3,-14.3 34.6,-21.3 0,0 1.1,-0.6 1.1,-0.6 9.6,-5.1 19.7,-7.6 30.1,-7.6 19.1,0 37,8.9 48.8,24.2 4.5,-1.7 9.1,-2.8 13.9,-3.4 2.9,-0.3 5.4,-0.5 7.9,-0.5 8.3,0 16.3,1.6 23.8,4.6 -0.9,-14 2.9,-27.8 11.1,-39.4 11.8,-16.8 31.2,-26.8 51.8,-26.8 20.6,0 18.7,2.1 27,6.2 11.3,-18 31.4,-29.3 53,-29.3 21.6,0 17.1,1.8 25.1,5.2 10.3,4.5 19.2,11.7 25.7,20.8 3.5,-4.7 7.3,-9.4 11.1,-13.9 l 0.4,-0.5 c 18.4,-21 47.6,-50 88.4,-59.1 h 0.4 c 6.4,-1.4 12.8,-2.1 19,-2.1 6.2,0 6.7,0.2 10,0.6 0.6,-1.8 1.3,-3.6 2,-5.4 0,0 1.2,-2.7 1.2,-2.7 1.5,-3.4 3.9,-8.4 6.8,-13.8 15.2,-28.5 34.3,-54.5 55.2,-75 37.3,-36.9 83.4,-58 126.4,-58 43,0 35.2,3.6 51.3,10.7 l 0.7,0.3 c 0,0 0.2,0 0.3,0.1 l 0.7,0.3 c 10.8,5.3 20.6,12.1 29.2,20.2 11.7,-11.5 27.6,-18.2 43.9,-18.2 16.3,0 8.8,0.5 13.1,1.4 16.4,3.5 30.4,13.2 39.4,27.2 3.9,6 6.7,12.6 8.3,19.4 11.7,-4.9 23.7,-7.6 35.9,-8 0.7,0 1.4,0 2.1,0 8.8,0 17.6,1.9 25.6,5.6 11.7,-14.1 29.1,-22.4 47.6,-22.4 18.5,0 37.5,8.8 49.3,23.4 2.8,3.4 5.1,7.1 7.1,11 4.1,-0.8 8.3,-1.3 12.5,-1.3 17.5,0 34.5,7.5 46.4,20.1 0.3,-2.5 0.4,-4.8 0.6,-6.8 v -0.6 c 0.2,-1.5 0.3,-3 0.4,-4.4 2.4,-32.5 29.7,-58 62.3,-58 32.6,0 2.4,0 3.6,0.1 34.1,1.8 60.5,31.2 58.9,65.4 -0.3,6.1 -0.6,11.9 -1.1,19 -2.1,30.1 -5,60.6 -8.7,90.7 l -0.4,2.8 c -19.7,145.2 -50.4,284.8 -140.4,322.4 -13.7,5.6 -28.5,8.5 -43,8.5 -31.9,0 -61,-13.5 -79.8,-37 -32.4,-40.7 -32.5,-94.8 -29.6,-132.1 0.4,-12.4 3.7,-23.8 9.6,-33.7 -12.6,9.7 -26.1,17.2 -40,22.6 l -0.6,0.2 c -12.1,4.4 -24.2,6.6 -36,6.6 -11.8,0 -26.8,-3 -38.8,-8.8 -10,21.8 -32.3,36.4 -56.9,36.4 -24.6,0 -9.1,-0.5 -13.5,-1.5 -16.1,-3.5 -30,-13.1 -39.1,-27.1 -4.5,-6.9 -7.5,-14.5 -9,-22.4 -19.5,11.3 -40.4,19.4 -62.4,24.2 l -7.7,30.9 c -6.8,27.9 -31.8,47.4 -60.7,47.4 -28.9,0 -10.4,-0.7 -15.5,-2 -8.1,-2 -15.7,-5.7 -22.4,-10.8 -21.7,21.6 -47.3,38.3 -74.5,48.5 -14.6,5.7 -30.4,8.7 -45.5,8.7 -15.1,0 -21.1,-1.5 -30.8,-4.5 -15.9,17.6 -32.8,29 -51.7,34.9 -7.9,2.5 -16.2,3.8 -24.5,3.8 -21.9,0 -43,-8.8 -59.2,-24.4 -8.5,11.5 -17.7,22.5 -27.2,32.8 l -0.5,0.5 c 0,0 -0.1,0.1 -0.2,0.2 l -0.5,0.5 c -0.8,0.8 -1.6,1.6 -2.4,2.5 l -0.5,0.6 c -8.5,9.2 -26.1,28.2 -54.2,28.2 -28.1,0 -16.7,-1.8 -24.7,-5.2 -5.6,-2.4 -10.8,-5.6 -15.5,-9.5 -29.2,30.6 -68.9,48.6 -107.6,48.6 -38.7,0 -38.8,-4.9 -55.4,-14.1 -10,22.2 -32.3,37 -57,37 h -0.2 c -18.2,0 -35.5,-8 -47.5,-22 -11.9,-13.9 -17.1,-32.3 -14.2,-50.3 l 2.2,-14.5 c -5.1,1.3 -10.3,1.9 -15.7,1.9 -13.6,0 -26.6,-4.3 -37.2,-12 l -10,63.3 c -4.6,30.1 -31.2,52.8 -61.8,52.8 z M -1066,3257.9 c 5.9,-12.7 11.2,-27.1 16,-43.7 -8.7,-0.9 -17.3,-2.7 -25.4,-5.5 8.9,13.5 12.3,29.9 9.6,47 0,0.8 -0.1,1.5 -0.1,2.3 z m -398.2,-227.2 c 12.6,9.4 21.1,23.2 24.1,38.3 1.7,-3.2 3.2,-6.6 4.5,-10 l 0.4,-0.9 c 8.8,-21.2 7.8,-40.4 5.7,-48.2 -2.7,0.6 -7,2 -13.2,5 -7.3,3.8 -14.5,9.1 -21.5,15.8 z"
         id="path1"
         style="fill:#250536;stroke-width:0px" />
      <path
         class="cls-6"
         d="m -1426.5,2891.6 c 17,0 33.3,3.4 48.5,10.1 l 0.7,0.3 0.7,0.3 c 12.9,6.3 23.7,14.5 32.6,24.1 10.3,-13.1 26.3,-21.4 43.7,-21.4 17.4,0 7.8,0.4 11.6,1.2 14.5,3.1 26.9,11.7 35,24.2 5.1,7.9 8.1,16.9 8.7,26 12.7,-6.7 26.6,-10.9 41.6,-11.4 0.6,0 1.2,0 1.8,0 9.9,0 19.4,2.7 27.7,7.5 10.1,-15 26.9,-24.3 45.5,-24.3 18.6,0 33.3,7.8 43.8,20.8 3.7,4.5 6.5,9.6 8.5,15 5.3,-1.7 10.8,-2.6 16.6,-2.6 18.6,0 36.6,9.6 46.9,25 1.7,2.5 3.1,5.1 4.3,7.8 0.8,-6.1 1.6,-12.2 2.2,-18.3 v -0.5 c 0.4,-2.9 0.6,-5.5 0.7,-7.8 0.1,-1.5 0.2,-3 0.3,-4.3 2.1,-28.9 26.2,-51.5 55.2,-51.5 29,0 2.1,0 3.2,0 30.2,1.6 53.7,27.6 52.3,58 -0.3,6.2 -0.6,11.8 -1.1,18.8 -2.1,30 -5,60.4 -8.7,90.3 l -0.4,2.7 c -19.4,143.1 -49.4,280.6 -136.1,316.8 -12.9,5.2 -26.7,7.9 -40.3,7.9 v 0 c -29.7,0 -56.8,-12.5 -74.3,-34.4 -30.7,-38.6 -30.8,-90.8 -28.1,-127.3 0.4,-14.5 5.4,-27.4 13.5,-37.3 -3.3,-2 -6.4,-4.4 -9.4,-7.1 -13.8,11.5 -28.5,20.3 -44.1,26.2 l -0.6,0.2 c -11.3,4.1 -22.5,6.1 -33.6,6.1 -11.1,0 -29.9,-4.2 -42.5,-11.8 -6.9,23 -28.5,39.4 -53.1,39.4 -24.6,0 -8,-0.4 -11.9,-1.3 -14.2,-3 -26.6,-11.6 -34.7,-24.1 -6,-9.3 -9,-19.8 -8.9,-30.6 -22.4,14.6 -47.5,25 -74.2,30.2 l -8.8,35.3 c -6,24.7 -28.2,42 -53.8,42 v 0 c -4.6,0 -9.2,-0.6 -13.7,-1.7 -9.3,-2.3 -17.7,-7.1 -24.6,-13.7 -21.7,22.9 -48.1,40.9 -76.6,51.6 -13.9,5.4 -28.7,8.2 -43,8.2 -14.3,0 -22.9,-1.9 -33,-5.6 -13.7,16 -30.3,29.7 -51.6,36.3 -7.2,2.3 -14.8,3.4 -22.4,3.4 -23.4,0 -45,-10.9 -60,-28.4 -1,1.5 -2,2.9 -3.1,4.4 -8.9,12.2 -18.5,23.8 -28.6,34.6 l -0.5,0.5 -0.5,0.5 c -1,1 -2.1,2.2 -3.1,3.3 -8.4,9.1 -24,25.9 -49,25.9 v 0 c -7.4,0 -14.8,-1.6 -21.8,-4.6 -7.2,-3 -13.5,-7.6 -18.6,-13.1 -27.9,32 -68.4,51.7 -107.3,51.7 v 0 0 0 c -21.9,0 -42,-6.2 -59.1,-17.6 -6.7,23.5 -28.4,40.5 -53.3,40.5 h -0.2 c -16.2,0 -31.5,-7.1 -42.1,-19.5 -10.6,-12.4 -15.1,-28.6 -12.6,-44.5 l 3.9,-26.3 c -7.4,3.6 -15.7,5.6 -24.4,5.6 -16.8,0 -32,-7.3 -42.2,-19 l -12.1,76.2 c -4.1,26.6 -27.6,46.8 -54.8,46.8 v 0 c -3,0 -6,-0.3 -9,-0.7 -14.4,-2.3 -27.2,-10.2 -35.9,-22.2 -8.7,-12 -12.2,-26.7 -9.9,-41.3 l 28.8,-181.4 c -4.1,1 -8.4,1.5 -12.7,1.5 -20.4,0 -39.8,-11.7 -49.4,-29.8 -9.7,-18.1 -8.4,-39.4 3.3,-57 l 0.8,-1.2 1.6,-2.1 c 1.6,-2.1 3.9,-5.2 6.9,-8.4 26.3,-30.7 60.7,-48.3 94.5,-48.3 33.8,0 49.6,10 69.4,29 l 0.6,0.6 c 16.6,16.6 28.6,35.8 37.8,55.7 13,-19.5 26,-36.8 39.4,-52.5 4.9,-5.7 9.4,-10.5 13.8,-14.9 12.2,-13.5 27.9,-20.9 44.3,-20.9 16.4,0 18.5,2.4 26.8,7.1 20.1,11.3 31.3,34 27.9,56.6 l -4.7,31.4 c 8.8,-6.9 18.2,-13.8 28.2,-20.4 10.5,-7 22,-14.1 34.2,-21 l 1,-0.6 c 8.5,-4.5 17.5,-6.8 26.7,-6.8 19,0 36.3,10.1 46.3,25.8 5.4,-2.6 11.2,-4.4 17.2,-5.2 2.6,-0.3 4.8,-0.4 7,-0.4 12.7,0 24.3,4.2 33.6,11.3 -5.5,-17 -3,-34.8 7,-49.1 10.5,-14.9 27.7,-23.8 46,-23.8 18.3,0 21.1,3.1 29.8,8.8 9.1,-19.4 28.6,-31.9 50.2,-31.9 21.6,0 15.2,1.6 22.2,4.7 12.8,5.6 22.5,15.5 28,27.3 5.3,-7.7 11,-15.1 17.1,-22.3 l 0.4,-0.4 c 17.7,-20.2 45.8,-48.2 84.6,-56.8 h 0.4 c 5.9,-1.3 11.7,-2 17.5,-2 5.8,0 10.3,0.5 15.2,1.5 0.7,-3.6 1.8,-7.2 3.3,-10.6 l 1.1,-2.4 c 1.5,-3.3 3.8,-8.3 6.7,-13.5 14.8,-27.9 33.5,-53.3 53.9,-73.4 36,-35.6 80.3,-56 121.5,-56 v 0 z m -20.6,200.4 c 7.6,-8.9 13.8,-19.2 18.1,-30.4 l 0.3,-0.8 c 11.5,-27.8 7.7,-53.1 3.4,-58.4 -0.2,0 -0.5,0 -0.9,0 -2.2,0 -8.4,0.6 -19.8,6.2 -10.2,5.3 -20,13.1 -29.4,23.4 21.2,11.3 33.2,35.7 28.2,60 v 0 z m 374.1,193.5 c 14.8,-23 24.7,-49.7 32.3,-77.9 -15.5,-0.3 -30.2,-3.8 -43.2,-10.1 -2,1.6 -4.1,3.2 -6.3,4.7 2.1,1.9 4,3.9 5.8,6.1 10.4,12.8 14.4,29.2 11.6,46.6 -1,13.7 -0.8,23.6 -0.2,30.7 v 0 z m -353.5,-408.1 c -44.9,0 -92.8,21.9 -131.4,60.1 -21.4,21.1 -40.9,47.6 -56.4,76.7 -3.1,5.6 -5.5,10.8 -7,14.2 v 0 c 0,0.1 0,0.1 0,0.2 l -1.1,2.4 c 0,0 0,0.2 -0.1,0.3 0,0.2 -0.2,0.4 -0.3,0.6 -1.7,0 -3.5,-0.1 -5.2,-0.1 -6.7,0 -13.6,0.7 -20.4,2.2 0,0 0,0 -0.1,0 h -0.4 c -42.9,9.6 -73.1,39.7 -92.2,61.4 l -0.4,0.4 c 0,0 0,0 -0.1,0.1 -2,2.3 -4,4.7 -5.9,7.1 -6.4,-6.7 -14.1,-12.2 -22.7,-16 -8.9,-3.9 -18.2,-5.8 -27.9,-5.8 -21.9,0 -42.5,10.5 -55.5,27.6 -7.8,-3 -16.1,-4.5 -24.5,-4.5 -23,0 -44.5,11.1 -57.6,29.8 -7.1,10.1 -11.3,21.7 -12.2,33.8 -5.4,-1.3 -11.1,-2 -16.8,-2 -5.7,0 -5.6,0.2 -8.7,0.5 0,0 0,0 -0.1,0 -3.6,0.5 -7.2,1.2 -10.7,2.2 -5.1,-5.6 -11.1,-10.4 -17.6,-14.2 -10.3,-5.8 -21.8,-8.9 -33.5,-8.9 -11.7,0 -22.8,2.8 -33.3,8.4 0,0 -0.1,0 -0.2,0 l -1,0.6 c 0,0 -0.1,0 -0.2,0.1 -12.5,7.1 -24.3,14.3 -35.1,21.6 -0.5,0.3 -0.9,0.6 -1.4,0.9 3.3,-27.7 -10.7,-55.3 -35.2,-69 -10.4,-5.8 -22.1,-8.9 -33.7,-8.9 -20.4,0 -39.8,9 -54.6,25.3 -4.5,4.6 -9.2,9.6 -14.2,15.4 0,0 0,0 0,0 -9.2,10.8 -18.1,22.2 -27,34.4 -8.5,-14.5 -18.3,-27.1 -29.4,-38.3 0,0 0,0 0,0 l -0.6,-0.6 c 0,0 0,0 -0.1,-0.1 -22.4,-21.5 -49.8,-32.9 -79.2,-32.9 -29.4,0 -76.1,19.4 -105.1,53.1 -3.3,3.6 -5.9,7.1 -7.5,9.2 l -1.6,2 c -0.2,0.3 -0.4,0.5 -0.6,0.8 l -0.8,1.2 c -14.7,22 -16.2,48.8 -4,71.6 11.5,21.4 33.8,35.7 57.9,37.1 l -26,163.5 c -2.9,18.4 1.5,36.8 12.4,51.8 10.9,15 26.9,24.9 45.1,27.8 3.7,0.6 7.5,0.9 11.3,0.9 34,0 63.6,-25.3 68.8,-58.8 l 8.4,-52.8 c 9.7,4.9 20.6,7.6 31.9,7.6 11.3,0 4.8,-0.1 7.2,-0.4 l -0.7,4.8 c -3.2,20 2.6,40.4 15.8,55.9 13.3,15.6 32.5,24.5 52.9,24.5 h 0.2 c 25,0 47.7,-13.6 60,-34.6 16.1,7.7 33.9,11.7 52.4,11.7 38.7,0 78.2,-17.1 108.3,-46.3 3.8,2.6 7.8,4.8 12,6.6 8.8,3.8 18.1,5.8 27.4,5.8 31.3,0 50.3,-20.6 59.5,-30.5 l 0.5,-0.6 c 0.8,-0.9 1.5,-1.7 2.2,-2.3 l 0.5,-0.5 c 0.1,-0.1 0.2,-0.2 0.3,-0.4 l 0.5,-0.5 c 8,-8.6 15.8,-17.7 23.1,-27.2 16.6,13.5 37.1,21.1 58.2,21.1 21.1,0 18,-1.4 26.6,-4.1 18.9,-5.9 36,-16.9 51.8,-33.6 9.1,2.4 18.7,3.6 28.6,3.6 15.9,0 32.6,-3.2 48,-9.1 26.3,-9.9 51.2,-25.7 72.7,-46 6.2,3.9 12.9,6.8 19.9,8.6 5.6,1.4 11.4,2.2 17.2,2.2 32.2,0 60,-21.7 67.6,-52.8 l 6.7,-26.7 c 18.1,-4.3 35.6,-10.8 52.1,-19.5 1.8,5.5 4.4,10.7 7.6,15.6 10.1,15.6 25.5,26.3 43.5,30.2 4.9,1.1 9.9,1.6 15,1.6 24.9,0 47.8,-13.6 60.1,-34.4 11.2,4.4 23.3,6.8 35.6,6.8 12.3,0 25.6,-2.4 38.4,-7 0,0 0,0 0,0 l 0.6,-0.2 c 0,0 0,0 0.1,0 7.7,-2.9 15.3,-6.5 22.6,-10.8 -1.1,4.8 -1.7,9.8 -1.9,14.9 -2.9,38.5 -2.8,94.3 31.1,136.9 20.3,25.3 51.4,39.7 85.4,39.7 34,0 31.2,-3.1 45.6,-9 0,0 0,0 0.1,0 43.6,-18.2 76.7,-59.6 101.1,-126.5 22.8,-62.5 35.3,-140.5 43.5,-201.4 l 0.4,-2.7 c 0,0 0,-0.1 0,-0.2 3.7,-30.1 6.7,-60.8 8.7,-91.1 0.5,-7.1 0.8,-12.9 1.2,-19 0,0 0,0 0,0 1.8,-38.1 -27.7,-70.8 -65.7,-72.8 -1.3,0 -2.6,-0.1 -4,-0.1 -17.6,0 -34.5,6.6 -47.4,18.7 -12.4,11.5 -20,27 -21.8,43.7 -11.8,-8.2 -25.9,-12.8 -40.5,-12.8 -14.6,0 -5.8,0.2 -8.7,0.5 -1.6,-2.7 -3.4,-5.2 -5.3,-7.7 -13.1,-16.3 -33.7,-26.1 -54.9,-26.1 -21.2,0 -36.7,7.7 -49.6,21 -7.6,-2.8 -15.6,-4.2 -23.6,-4.2 -8,0 -1.5,0 -2.3,0 -10.5,0.3 -20.9,2.3 -31.1,5.8 -1.8,-4.9 -4.1,-9.5 -6.9,-13.9 -10.1,-15.6 -25.7,-26.4 -43.9,-30.3 -4.8,-1 -9.7,-1.6 -14.6,-1.6 -15.9,0 -31.5,5.7 -43.9,15.8 -7.9,-6.7 -16.6,-12.4 -26.1,-17 l -0.7,-0.3 c -0.2,0 -0.4,-0.2 -0.5,-0.3 l -0.7,-0.3 c -17,-7.5 -35.2,-11.3 -54.1,-11.3 v 0 z"
         id="path2"
         style="fill:#7a52ff;stroke-width:0px" />
      <g
         id="g10">
        <path
           class="cls-5"
           d="m -2377.5,3215.7 c -9.4,-1.5 -18.2,4.9 -19.7,14.3 l -32.9,207.1 c -1.5,9.4 4.9,18.2 14.3,19.7 9.2,1.5 18.3,-4.9 19.7,-14.3 0,0 32.9,-207.1 32.9,-207.1 1.5,-9.4 -4.9,-18.2 -14.3,-19.7 z"
           id="path3"
           style="fill:#fcef57;stroke-width:0px" />
        <path
           class="cls-5"
           d="m -2180.8,3141.8 c -9.1,-5.1 -18.1,-0.9 -24.6,6.7 -4,4 -8.2,8.5 -12.6,13.5 -31,36.3 -56.4,78.1 -78.9,120.6 -10.9,-44.3 -22.6,-89.7 -54.4,-121.6 -35.4,-34 -80.4,-16.2 -108.7,17.2 -2.5,2.6 -4.7,5.8 -6.1,7.5 -12.6,18.8 14,38.1 27.9,20.2 50.4,-62.3 78.4,-11.3 96.5,43.1 9.1,28.2 15.3,58.1 20.5,89.7 2.5,16.4 25.7,19.8 32.6,4.6 5,-10.7 10.2,-21.2 15.3,-31.3 17.3,-34 36.3,-66.9 58.2,-97.6 l -30.5,203.7 c -1.6,10.3 6.6,19.9 17,19.8 8.4,0 15.7,-6.1 17,-14.7 l 39.5,-263.8 c 1.1,-7.1 -2.4,-14 -8.6,-17.5 z"
           id="path4"
           style="fill:#fcef57;stroke-width:0px" />
        <path
           class="cls-5"
           d="m -2018.3,3270.3 c -11.7,-13.6 -31.8,-17.8 -48.8,-12.9 -28.7,8.4 -48.8,36.8 -62.6,62.8 -2,3.8 -3,6.2 -3,6.2 -3.8,8.7 0,18.8 8.7,22.7 8.7,3.9 18.8,0 22.7,-8.7 0,-0.2 0.8,-1.9 2.2,-4.5 7.3,-14.1 17.4,-29.3 29.3,-38.9 7.2,-5.5 13.8,-8.9 22,-6.3 13.5,5.4 2.6,35 -3,44.6 -8.7,15.9 -22.2,29.9 -38.3,38.1 -24.6,13.7 -54.8,8 -61.9,-21.9 -3.7,-16.6 2,-33.5 10.6,-48.2 23.4,-37.7 61.3,-62.8 99.8,-85.3 19.4,-11.8 3.1,-40.6 -17,-29.9 -11.4,6.5 -22.2,13.1 -32,19.7 -53.4,35.3 -119,97.8 -89.5,166.9 32,62.5 107.7,44.6 145.1,-3 21.7,-27 39.7,-71.4 15.7,-101.5 z"
           id="path5"
           style="fill:#fcef57;stroke-width:0px" />
        <path
           class="cls-5"
           d="m -1876,3155.4 c -9,-20.9 -39.7,-8.8 -32,12.6 3.7,9.3 5.5,19.2 5.9,29.4 0.6,45.5 -23.2,88.1 -50.4,123.4 -1.7,-31.9 -4.6,-65.4 -8.2,-96.3 -0.1,-10.9 -8.5,-19.7 -19.6,-18.4 -11,1.4 -17,11.9 -14.6,22.4 1.5,12.8 3,27.3 4.3,41.5 2,22 3.7,46.8 4.5,69.1 0.3,8.6 0.5,16.9 0.6,24.7 0,6.8 4.2,13 10.5,15.7 13.8,6 23.1,-8.1 31.8,-16.7 9,-9.7 17.7,-20.2 25.5,-30.9 35.9,-49.7 65,-115.9 41.8,-176.5 z"
           id="path6"
           style="fill:#fcef57;stroke-width:0px" />
        <path
           class="cls-5"
           d="m -1601.2,3162.9 c -9.4,-0.9 -17.9,5.9 -18.9,15.4 -1.1,10.8 -5.1,21.3 -10.8,31.2 -15.2,25.7 -40.2,47.8 -68.1,58.4 -14.6,5.2 -32.8,8 -34.3,-12.2 -2.2,-27.4 8,-56.9 20.9,-81.3 12.4,-23.4 44.5,-65.8 72.1,-67.8 11.6,30.8 -26.6,62.2 -49.6,78.5 -6.4,4.5 -15.9,10.4 -22.2,13.8 -10.4,4.2 -15.7,14.7 -10.7,24.9 5.7,10.4 17.5,12.1 27.4,5.3 13.5,-7.4 30,-18.4 42.2,-28.5 25.4,-20.9 49.5,-48.8 49.6,-82.5 1,-28.5 -17.6,-51.3 -47.2,-45.1 -25.5,5.7 -46.9,25 -64.1,44.7 -25.5,30 -43.9,67 -50.6,105.8 -8,18.5 -20.7,43.8 -33,60.2 -6.2,8.6 -16,19.4 -23.4,21.6 -8.9,1.9 -10.5,-14.1 -10.9,-21.1 -0.3,-36.8 12.7,-73.8 25.2,-108.7 3.9,-10.3 8,-20.6 12.1,-29.9 3.8,-8.7 -0.2,-18.9 -8.9,-22.7 -8.7,-3.8 -18.9,0.2 -22.7,8.9 -1.9,4.3 -3.9,9.1 -6.1,14.5 -4.6,11.2 -9.6,24.6 -13.6,36.3 -7,20.6 -13.2,41.9 -17,62.8 -3.5,19.9 -5.6,40.3 -0.8,59.1 5.1,23.5 28.5,41.4 52.2,34 23.8,-7.4 40.6,-31.4 54,-53.2 15.2,23.9 46.9,24.6 71.3,15.1 35.5,-13.4 67.1,-41 86.2,-73.6 8.1,-14 13.6,-29.2 15.2,-44.8 1,-9.5 -5.9,-17.9 -15.4,-18.9 z"
           id="path7"
           style="fill:#fcef57;stroke-width:0px" />
        <path
           class="cls-5"
           d="m -1368,3056.2 c 13.1,-45.6 8.8,-108.7 -38.7,-131.9 -44.6,-19.7 -95.2,6.1 -127.7,38.2 -18.8,18.5 -34.7,41 -47.1,64.3 -2.6,4.8 -4.8,9.6 -6.2,12.6 -3.7,8.7 0.3,18.8 9.1,22.6 8.7,3.7 18.8,-0.3 22.6,-9 2.8,-6.3 7.5,-15 11.4,-21.6 16.8,-27.8 39.1,-54.3 68.1,-69.3 79.4,-39.6 94.1,42.8 69.9,100.9 -18.1,46.8 -61.1,83 -111.3,89.2 l 19.9,-79.5 c 2.3,-9.2 -3.3,-18.6 -12.5,-20.9 -9.2,-2.3 -18.6,3.3 -20.9,12.5 l -44,175.7 c -2.3,9.2 3.3,18.6 12.5,20.9 9,2.3 18.6,-3.2 20.9,-12.5 0,0 15.2,-60.7 15.2,-60.7 75.8,-3.9 139.3,-59 158.8,-131.6 z"
           id="path8"
           style="fill:#fcef57;stroke-width:0px" />
        <path
           class="cls-5"
           d="m -1310.2,2931.4 c -9.3,-2 -18.4,3.9 -20.5,13.2 l -52.6,244.6 c -2,9.3 3.9,18.4 13.2,20.4 9.1,2 18.5,-3.9 20.4,-13.2 0,0 52.6,-244.6 52.6,-244.6 2,-9.3 -3.9,-18.5 -13.2,-20.5 z"
           id="path9"
           style="fill:#fcef57;stroke-width:0px" />
        <path
           class="cls-5"
           d="m -962.3,2937.8 c -9.5,-0.5 -17.5,6.7 -18.1,16.2 -0.3,3.6 -0.5,8 -1.1,13.4 -2.5,25.2 -7.1,52.9 -13.7,77.4 -8,27.4 -23.7,78.5 -57.5,77.8 -46.9,1.1 -14.5,-87 -4.1,-110.9 8.8,-21 -21.3,-34.6 -31.3,-14.2 -12.7,29.8 -23.7,64.2 -23.5,96.5 -10.7,13.9 -22.4,28.2 -33.3,36 -3,-17.3 -0.8,-36.6 1.3,-55.4 4,-32 11.3,-68.3 18.8,-99.1 4.8,-22.1 -27,-30.3 -33.4,-8.5 -7.7,28.4 -18.5,60.9 -30.2,88.4 -8.5,19.6 -18,39.4 -30.6,55.5 -13.9,16.4 -30.3,34.6 -51.8,37.1 -11.4,0.2 -11.7,-13.9 -11.9,-23.2 0.8,-25.4 13.4,-56.4 24.8,-78.4 8.9,-15.9 23.9,-39.9 42.9,-40.6 5.8,-0.2 11,-3.3 14.1,-8.2 v 0 c 7.2,-11.6 -1.2,-27 -14.9,-26.6 -31.1,1 -58,30.5 -72.4,59.1 -14,26.9 -28.2,63.1 -28.9,93.9 -1.9,40.4 26.4,69.1 66.7,54.5 29.3,-11.1 52.4,-35.7 69.6,-62.3 0,22.2 6.5,49.9 31.9,50.6 19.4,-0.1 35.3,-17.3 48.8,-32.5 14.8,21.7 46.5,27.6 70.9,18.8 10.2,-3.7 20,-10.7 27.8,-18.9 -11,55.1 -22.6,112.7 -53.1,160 -10.7,16.4 -29.7,32.8 -49.8,25.6 -23.6,-11.3 -21.7,-59.6 -20,-82.2 6.1,-28.9 -34.2,-33.2 -34.3,-3.3 -2.7,34.1 -2.1,74.2 19.7,101.5 16.6,20.7 46.2,24.8 70,15.1 79.2,-33 102.6,-210.8 113.2,-288.8 3.6,-29.5 6.5,-59.4 8.5,-88.4 0.5,-6.8 0.8,-12.2 1.1,-17.9 0.4,-9.5 -6.8,-17.5 -16.3,-18 z"
           id="path10"
           style="fill:#fcef57;stroke-width:0px" />
      </g>
    </g>
  </g>
</svg>
